<?xml version="1.0" encoding="UTF-8" standalone="no"?>
<!DOCTYPE svg PUBLIC "-//W3C//DTD SVG 1.1//EN"
 "http://www.w3.org/Graphics/SVG/1.1/DTD/svg11.dtd">
<!-- Generated by graphviz version 2.40.1 (20161225.0304)
 -->
<!-- Title: %3 Pages: 1 -->
<svg width="736pt" height="524pt"
 viewBox="0.00 0.00 736.02 524.00" xmlns="http://www.w3.org/2000/svg" xmlns:xlink="http://www.w3.org/1999/xlink">
<g id="graph0" class="graph" transform="scale(1 1) rotate(0) translate(4 520)">
<title>%3</title>
<polygon fill="#ffffff" stroke="transparent" points="-4,4 -4,-520 732.02,-520 732.02,4 -4,4"/>
<!-- パルスィ -->
<g id="node1" class="node">
<title>パルスィ</title>
<path fill="#c0ffee" stroke="#888888" d="M110,-36C110,-36 62,-36 62,-36 56,-36 50,-30 50,-24 50,-24 50,-12 50,-12 50,-6 56,0 62,0 62,0 110,0 110,0 116,0 122,-6 122,-12 122,-12 122,-24 122,-24 122,-30 116,-36 110,-36"/>
<text text-anchor="middle" x="86" y="-17.3" font-family="Helvetica,sans-Serif" font-size="14.00" fill="#888888">パルスィ</text>
</g>
<!-- ヤマメ -->
<g id="node6" class="node">
<title>ヤマメ</title>
<path fill="#f4f4f4" stroke="#000000" d="M60,-96C60,-96 12,-96 12,-96 6,-96 0,-90 0,-84 0,-84 0,-72 0,-72 0,-66 6,-60 12,-60 12,-60 60,-60 60,-60 66,-60 72,-66 72,-72 72,-72 72,-84 72,-84 72,-90 66,-96 60,-96"/>
<text text-anchor="middle" x="36" y="-77.3" font-family="Helvetica,sans-Serif" font-size="14.00" fill="#000000">ヤマメ</text>
</g>
<!-- パルスィ&#45;&gt;ヤマメ -->
<g id="edge11" class="edge">
<title>パルスィ&#45;&gt;ヤマメ</title>
<path fill="none" stroke="#ff6666" d="M70.9984,-36.002C66.9209,-40.8949 62.4186,-46.2977 58.0392,-51.553"/>
<polygon fill="#ff6666" stroke="#ff6666" points="55.0503,-49.6725 51.3372,-59.5954 60.4278,-54.1538 55.0503,-49.6725"/>
</g>
<!-- 勇儀 -->
<g id="node7" class="node">
<title>勇儀</title>
<path fill="#f4f4f4" stroke="#000000" stroke-width="2" d="M160,-96C160,-96 112,-96 112,-96 106,-96 100,-90 100,-84 100,-84 100,-72 100,-72 100,-66 106,-60 112,-60 112,-60 160,-60 160,-60 166,-60 172,-66 172,-72 172,-72 172,-84 172,-84 172,-90 166,-96 160,-96"/>
<text text-anchor="middle" x="136" y="-77.3" font-family="Helvetica,sans-Serif" font-size="14.00" fill="#000000">勇儀</text>
</g>
<!-- パルスィ&#45;&gt;勇儀 -->
<g id="edge12" class="edge">
<title>パルスィ&#45;&gt;勇儀</title>
<path fill="none" stroke="#ff6666" d="M101.0016,-36.002C105.0791,-40.8949 109.5814,-46.2977 113.9608,-51.553"/>
<polygon fill="#ff6666" stroke="#ff6666" points="111.5722,-54.1538 120.6628,-59.5954 116.9497,-49.6725 111.5722,-54.1538"/>
</g>
<!-- 萃香 -->
<g id="node2" class="node">
<title>萃香</title>
<path fill="#f4f4f4" stroke="#000000" d="M210,-36C210,-36 162,-36 162,-36 156,-36 150,-30 150,-24 150,-24 150,-12 150,-12 150,-6 156,0 162,0 162,0 210,0 210,0 216,0 222,-6 222,-12 222,-12 222,-24 222,-24 222,-30 216,-36 210,-36"/>
<text text-anchor="middle" x="186" y="-17.3" font-family="Helvetica,sans-Serif" font-size="14.00" fill="#000000">萃香</text>
</g>
<!-- 華扇 -->
<g id="node8" class="node">
<title>華扇</title>
<path fill="#f4f4f4" stroke="#000000" d="M260,-96C260,-96 212,-96 212,-96 206,-96 200,-90 200,-84 200,-84 200,-72 200,-72 200,-66 206,-60 212,-60 212,-60 260,-60 260,-60 266,-60 272,-66 272,-72 272,-72 272,-84 272,-84 272,-90 266,-96 260,-96"/>
<text text-anchor="middle" x="236" y="-77.3" font-family="Helvetica,sans-Serif" font-size="14.00" fill="#000000">華扇</text>
</g>
<!-- 萃香&#45;&gt;華扇 -->
<g id="edge91" class="edge">
<title>萃香&#45;&gt;華扇</title>
<path fill="none" stroke="#6666ff" stroke-dasharray="1,5" d="M201.0016,-36.002C205.0791,-40.8949 209.5814,-46.2977 213.9608,-51.553"/>
<polygon fill="#6666ff" stroke="#6666ff" points="211.5722,-54.1538 220.6628,-59.5954 216.9497,-49.6725 211.5722,-54.1538"/>
</g>
<!-- 霊夢 -->
<g id="node3" class="node">
<title>霊夢</title>
<path fill="#ffcccc" stroke="#000000" d="M310,-36C310,-36 262,-36 262,-36 256,-36 250,-30 250,-24 250,-24 250,-12 250,-12 250,-6 256,0 262,0 262,0 310,0 310,0 316,0 322,-6 322,-12 322,-12 322,-24 322,-24 322,-30 316,-36 310,-36"/>
<text text-anchor="middle" x="286" y="-17.3" font-family="Helvetica,sans-Serif" font-size="14.00" fill="#000000">霊夢</text>
</g>
<!-- 霊夢&#45;&gt;萃香 -->
<g id="edge27" class="edge">
<title>霊夢&#45;&gt;萃香</title>
<path fill="none" stroke="#000000" d="M249.8977,-18C244.2333,-18 238.3104,-18 232.4527,-18"/>
<polygon fill="#000000" stroke="#000000" points="232.0493,-14.5001 222.0493,-18 232.0493,-21.5001 232.0493,-14.5001"/>
</g>
<!-- 早苗 -->
<g id="node4" class="node">
<title>早苗</title>
<path fill="#ffcccc" stroke="#000000" stroke-width="2" d="M410,-36C410,-36 362,-36 362,-36 356,-36 350,-30 350,-24 350,-24 350,-12 350,-12 350,-6 356,0 362,0 362,0 410,0 410,0 416,0 422,-6 422,-12 422,-12 422,-24 422,-24 422,-30 416,-36 410,-36"/>
<text text-anchor="middle" x="386" y="-17.3" font-family="Helvetica,sans-Serif" font-size="14.00" fill="#000000">早苗</text>
</g>
<!-- 神奈子 -->
<g id="node5" class="node">
<title>神奈子</title>
<path fill="#f4f4f4" stroke="#000000" stroke-width="2" d="M510,-36C510,-36 462,-36 462,-36 456,-36 450,-30 450,-24 450,-24 450,-12 450,-12 450,-6 456,0 462,0 462,0 510,0 510,0 516,0 522,-6 522,-12 522,-12 522,-24 522,-24 522,-30 516,-36 510,-36"/>
<text text-anchor="middle" x="486" y="-17.3" font-family="Helvetica,sans-Serif" font-size="14.00" fill="#000000">神奈子</text>
</g>
<!-- 早苗&#45;&gt;神奈子 -->
<g id="edge50" class="edge">
<title>早苗&#45;&gt;神奈子</title>
<path fill="none" stroke="#000000" d="M432.5075,-17C434.9789,-17 437.4617,-17 439.9316,-17"/>
<path fill="none" stroke="#000000" d="M432.5075,-19C434.9789,-19 437.4617,-19 439.9316,-19"/>
<polygon fill="#000000" stroke="#000000" points="432.1023,-14.5001 422.1023,-18 432.1023,-21.5001 432.1023,-14.5001"/>
<polygon fill="#000000" stroke="#000000" points="439.9507,-21.5001 449.9507,-18 439.9507,-14.5001 439.9507,-21.5001"/>
</g>
<!-- 諏訪子 -->
<g id="node10" class="node">
<title>諏訪子</title>
<path fill="#f4f4f4" stroke="#000000" d="M460,-96C460,-96 412,-96 412,-96 406,-96 400,-90 400,-84 400,-84 400,-72 400,-72 400,-66 406,-60 412,-60 412,-60 460,-60 460,-60 466,-60 472,-66 472,-72 472,-72 472,-84 472,-84 472,-90 466,-96 460,-96"/>
<text text-anchor="middle" x="436" y="-77.3" font-family="Helvetica,sans-Serif" font-size="14.00" fill="#000000">諏訪子</text>
</g>
<!-- 神奈子&#45;&gt;諏訪子 -->
<g id="edge51" class="edge">
<title>神奈子&#45;&gt;諏訪子</title>
<path fill="none" stroke="#000000" d="M465.0881,-44.6563C463.0386,-47.1157 460.9588,-49.6114 458.9052,-52.0759"/>
<path fill="none" stroke="#000000" d="M463.5517,-43.3759C461.5022,-45.8353 459.4224,-48.3311 457.3687,-50.7955"/>
<polygon fill="#000000" stroke="#000000" points="467.2853,-45.9249 470.9984,-36.002 461.9077,-41.4436 467.2853,-45.9249"/>
<polygon fill="#000000" stroke="#000000" points="455.0503,-49.6725 451.3372,-59.5954 460.4278,-54.1538 455.0503,-49.6725"/>
</g>
<!-- 勇儀&#45;&gt;萃香 -->
<g id="edge56" class="edge">
<title>勇儀&#45;&gt;萃香</title>
<path fill="none" stroke="#000000" d="M156.9119,-51.3437C158.9614,-48.8843 161.0412,-46.3886 163.0948,-43.9241"/>
<path fill="none" stroke="#000000" d="M158.4483,-52.6241C160.4978,-50.1647 162.5776,-47.6689 164.6313,-45.2045"/>
<polygon fill="#000000" stroke="#000000" points="154.7147,-50.0751 151.0016,-59.998 160.0923,-54.5564 154.7147,-50.0751"/>
<polygon fill="#000000" stroke="#000000" points="166.9497,-46.3275 170.6628,-36.4046 161.5722,-41.8462 166.9497,-46.3275"/>
</g>
<!-- 勇儀&#45;&gt;ヤマメ -->
<g id="edge80" class="edge">
<title>勇儀&#45;&gt;ヤマメ</title>
<path fill="none" stroke="#000000" d="M89.4925,-79C87.0211,-79 84.5383,-79 82.0684,-79"/>
<path fill="none" stroke="#ff6666" d="M89.4925,-77C87.0211,-77 84.5383,-77 82.0684,-77"/>
<polygon fill="#ff6666" stroke="#ff6666" points="89.8977,-81.5001 99.8977,-78 89.8977,-74.5001 89.8977,-81.5001"/>
<polygon fill="#000000" stroke="#000000" points="82.0493,-74.5001 72.0493,-78 82.0493,-81.5001 82.0493,-74.5001"/>
</g>
<!-- 勇儀&#45;&gt;華扇 -->
<g id="edge92" class="edge">
<title>勇儀&#45;&gt;華扇</title>
<path fill="none" stroke="#6666ff" stroke-dasharray="1,5" d="M172.1023,-78C177.7667,-78 183.6896,-78 189.5473,-78"/>
<polygon fill="#6666ff" stroke="#6666ff" points="189.9507,-81.5001 199.9507,-78 189.9507,-74.5001 189.9507,-81.5001"/>
</g>
<!-- 主人公 -->
<g id="node9" class="node">
<title>主人公</title>
<path fill="#ffcccc" stroke="#ffffff" d="M355.3333,-92.5C355.3333,-92.5 316.6667,-92.5 316.6667,-92.5 311.8333,-92.5 307,-87.6667 307,-82.8333 307,-82.8333 307,-73.1667 307,-73.1667 307,-68.3333 311.8333,-63.5 316.6667,-63.5 316.6667,-63.5 355.3333,-63.5 355.3333,-63.5 360.1667,-63.5 365,-68.3333 365,-73.1667 365,-73.1667 365,-82.8333 365,-82.8333 365,-87.6667 360.1667,-92.5 355.3333,-92.5"/>
<text text-anchor="middle" x="336" y="-77.3" font-family="Helvetica,sans-Serif" font-size="14.00" fill="#ff2222">主人公</text>
</g>
<!-- 主人公&#45;&gt;霊夢 -->
<g id="edge85" class="edge">
<title>主人公&#45;&gt;霊夢</title>
<path fill="none" stroke="#ffaaaa" stroke-width="3" stroke-dasharray="1,5" d="M323.8964,-63.4757C317.0756,-55.2907 308.4911,-44.9894 301.218,-36.2617"/>
</g>
<!-- 主人公&#45;&gt;早苗 -->
<g id="edge86" class="edge">
<title>主人公&#45;&gt;早苗</title>
<path fill="none" stroke="#ffaaaa" stroke-width="3" stroke-dasharray="1,5" d="M348.1036,-63.4757C354.9244,-55.2907 363.5089,-44.9894 370.782,-36.2617"/>
</g>
<!-- 主人公&#45;&gt;華扇 -->
<g id="edge22" class="edge">
<title>主人公&#45;&gt;華扇</title>
<path fill="none" stroke="#000000" d="M306.807,-78C299.1019,-78 290.5943,-78 282.2284,-78"/>
<polygon fill="#000000" stroke="#000000" points="282.1575,-74.5001 272.1575,-78 282.1575,-81.5001 282.1575,-74.5001"/>
</g>
<!-- 咲夜 -->
<g id="node14" class="node">
<title>咲夜</title>
<path fill="#ffcccc" stroke="#000000" d="M210,-156C210,-156 162,-156 162,-156 156,-156 150,-150 150,-144 150,-144 150,-132 150,-132 150,-126 156,-120 162,-120 162,-120 210,-120 210,-120 216,-120 222,-126 222,-132 222,-132 222,-144 222,-144 222,-150 216,-156 210,-156"/>
<text text-anchor="middle" x="186" y="-137.3" font-family="Helvetica,sans-Serif" font-size="14.00" fill="#000000">咲夜</text>
</g>
<!-- 主人公&#45;&gt;咲夜 -->
<g id="edge87" class="edge">
<title>主人公&#45;&gt;咲夜</title>
<path fill="none" stroke="#ffaaaa" stroke-width="3" stroke-dasharray="1,5" d="M306.7224,-89.711C282.5088,-99.3965 248.0135,-113.1946 222.0928,-123.5629"/>
</g>
<!-- 魔理沙 -->
<g id="node15" class="node">
<title>魔理沙</title>
<path fill="#ffcccc" stroke="#000000" d="M360,-156C360,-156 312,-156 312,-156 306,-156 300,-150 300,-144 300,-144 300,-132 300,-132 300,-126 306,-120 312,-120 312,-120 360,-120 360,-120 366,-120 372,-126 372,-132 372,-132 372,-144 372,-144 372,-150 366,-156 360,-156"/>
<text text-anchor="middle" x="336" y="-137.3" font-family="Helvetica,sans-Serif" font-size="14.00" fill="#000000">魔理沙</text>
</g>
<!-- 主人公&#45;&gt;魔理沙 -->
<g id="edge88" class="edge">
<title>主人公&#45;&gt;魔理沙</title>
<path fill="none" stroke="#ffaaaa" stroke-width="3" stroke-dasharray="1,5" d="M336,-92.5243C336,-100.7093 336,-111.0106 336,-119.7383"/>
</g>
<!-- 妖夢 -->
<g id="node16" class="node">
<title>妖夢</title>
<path fill="#ffcccc" stroke="#000000" d="M460,-156C460,-156 412,-156 412,-156 406,-156 400,-150 400,-144 400,-144 400,-132 400,-132 400,-126 406,-120 412,-120 412,-120 460,-120 460,-120 466,-120 472,-126 472,-132 472,-132 472,-144 472,-144 472,-150 466,-156 460,-156"/>
<text text-anchor="middle" x="436" y="-137.3" font-family="Helvetica,sans-Serif" font-size="14.00" fill="#000000">妖夢</text>
</g>
<!-- 主人公&#45;&gt;妖夢 -->
<g id="edge89" class="edge">
<title>主人公&#45;&gt;妖夢</title>
<path fill="none" stroke="#ffaaaa" stroke-width="3" stroke-dasharray="1,5" d="M360.2072,-92.5243C373.9644,-100.7786 391.309,-111.1854 405.9332,-119.9599"/>
</g>
<!-- 諏訪子&#45;&gt;早苗 -->
<g id="edge52" class="edge">
<title>諏訪子&#45;&gt;早苗</title>
<path fill="none" stroke="#000000" d="M413.5517,-52.6241C411.5022,-50.1647 409.4224,-47.6689 407.3687,-45.2045"/>
<path fill="none" stroke="#000000" d="M415.0881,-51.3437C413.0386,-48.8843 410.9588,-46.3886 408.9052,-43.9241"/>
<polygon fill="#000000" stroke="#000000" points="411.9077,-54.5564 420.9984,-59.998 417.2853,-50.0751 411.9077,-54.5564"/>
<polygon fill="#000000" stroke="#000000" points="410.4278,-41.8462 401.3372,-36.4046 405.0503,-46.3275 410.4278,-41.8462"/>
</g>
<!-- てゐ -->
<g id="node11" class="node">
<title>てゐ</title>
<path fill="#ccffcc" stroke="#000000" d="M610,-36C610,-36 562,-36 562,-36 556,-36 550,-30 550,-24 550,-24 550,-12 550,-12 550,-6 556,0 562,0 562,0 610,0 610,0 616,0 622,-6 622,-12 622,-12 622,-24 622,-24 622,-30 616,-36 610,-36"/>
<text text-anchor="middle" x="586" y="-17.3" font-family="Helvetica,sans-Serif" font-size="14.00" fill="#000000">てゐ</text>
</g>
<!-- 永琳 -->
<g id="node12" class="node">
<title>永琳</title>
<path fill="#ccffcc" stroke="#000000" stroke-width="2" d="M710,-36C710,-36 662,-36 662,-36 656,-36 650,-30 650,-24 650,-24 650,-12 650,-12 650,-6 656,0 662,0 662,0 710,0 710,0 716,0 722,-6 722,-12 722,-12 722,-24 722,-24 722,-30 716,-36 710,-36"/>
<text text-anchor="middle" x="686" y="-17.3" font-family="Helvetica,sans-Serif" font-size="14.00" fill="#000000">永琳</text>
</g>
<!-- 永琳&#45;&gt;てゐ -->
<g id="edge8" class="edge">
<title>永琳&#45;&gt;てゐ</title>
<path fill="none" stroke="#ff6666" d="M649.8977,-18C644.2333,-18 638.3104,-18 632.4527,-18"/>
<polygon fill="#ff6666" stroke="#ff6666" points="632.0493,-14.5001 622.0493,-18 632.0493,-21.5001 632.0493,-14.5001"/>
</g>
<!-- 優曇華院 -->
<g id="node17" class="node">
<title>優曇華院</title>
<path fill="#ccffcc" stroke="#000000" d="M610,-96C610,-96 562,-96 562,-96 556,-96 550,-90 550,-84 550,-84 550,-72 550,-72 550,-66 556,-60 562,-60 562,-60 610,-60 610,-60 616,-60 622,-66 622,-72 622,-72 622,-84 622,-84 622,-90 616,-96 610,-96"/>
<text text-anchor="middle" x="586" y="-77.3" font-family="Helvetica,sans-Serif" font-size="14.00" fill="#000000">優曇華院</text>
</g>
<!-- 永琳&#45;&gt;優曇華院 -->
<g id="edge79" class="edge">
<title>永琳&#45;&gt;優曇華院</title>
<path fill="none" stroke="#000000" d="M647.7237,-42.132C640.5192,-46.4546 632.9875,-50.9737 625.7693,-55.3046"/>
<path fill="none" stroke="#ff6666" d="M646.6947,-40.417C639.4902,-44.7397 631.9585,-49.2587 624.7403,-53.5896"/>
<polygon fill="#ff6666" stroke="#ff6666" points="649.2225,-44.1482 655.9967,-36.002 645.621,-38.1458 649.2225,-44.1482"/>
<polygon fill="#000000" stroke="#000000" points="623.1019,-51.6571 616.3277,-59.8034 626.7034,-57.6596 623.1019,-51.6571"/>
</g>
<!-- 美鈴 -->
<g id="node13" class="node">
<title>美鈴</title>
<path fill="#ff8888" stroke="#000000" stroke-width="2" d="M110,-156C110,-156 62,-156 62,-156 56,-156 50,-150 50,-144 50,-144 50,-132 50,-132 50,-126 56,-120 62,-120 62,-120 110,-120 110,-120 116,-120 122,-126 122,-132 122,-132 122,-144 122,-144 122,-150 116,-156 110,-156"/>
<text text-anchor="middle" x="86" y="-137.3" font-family="Helvetica,sans-Serif" font-size="14.00" fill="#000000">美鈴</text>
</g>
<!-- 咲夜&#45;&gt;美鈴 -->
<g id="edge77" class="edge">
<title>咲夜&#45;&gt;美鈴</title>
<path fill="none" stroke="#000000" d="M139.4925,-139C137.0211,-139 134.5383,-139 132.0684,-139"/>
<path fill="none" stroke="#ff6666" d="M139.4925,-137C137.0211,-137 134.5383,-137 132.0684,-137"/>
<polygon fill="#ff6666" stroke="#ff6666" points="139.8977,-141.5001 149.8977,-138 139.8977,-134.5001 139.8977,-141.5001"/>
<polygon fill="#000000" stroke="#000000" points="132.0493,-134.5001 122.0493,-138 132.0493,-141.5001 132.0493,-134.5001"/>
</g>
<!-- パチュリー -->
<g id="node20" class="node">
<title>パチュリー</title>
<path fill="#ff8888" stroke="#000000" d="M267,-216C267,-216 205,-216 205,-216 199,-216 193,-210 193,-204 193,-204 193,-192 193,-192 193,-186 199,-180 205,-180 205,-180 267,-180 267,-180 273,-180 279,-186 279,-192 279,-192 279,-204 279,-204 279,-210 273,-216 267,-216"/>
<text text-anchor="middle" x="236" y="-197.3" font-family="Helvetica,sans-Serif" font-size="14.00" fill="#000000">パチュリー</text>
</g>
<!-- 魔理沙&#45;&gt;パチュリー -->
<g id="edge24" class="edge">
<title>魔理沙&#45;&gt;パチュリー</title>
<path fill="none" stroke="#000000" d="M305.9967,-156.002C296.2965,-161.8221 285.3941,-168.3635 275.1333,-174.52"/>
<polygon fill="#000000" stroke="#000000" points="273.1019,-171.6571 266.3277,-179.8034 276.7034,-177.6596 273.1019,-171.6571"/>
</g>
<!-- アリス -->
<g id="node21" class="node">
<title>アリス</title>
<path fill="#f4f4f4" stroke="#000000" d="M360,-216C360,-216 312,-216 312,-216 306,-216 300,-210 300,-204 300,-204 300,-192 300,-192 300,-186 306,-180 312,-180 312,-180 360,-180 360,-180 366,-180 372,-186 372,-192 372,-192 372,-204 372,-204 372,-210 366,-216 360,-216"/>
<text text-anchor="middle" x="336" y="-197.3" font-family="Helvetica,sans-Serif" font-size="14.00" fill="#000000">アリス</text>
</g>
<!-- 魔理沙&#45;&gt;アリス -->
<g id="edge25" class="edge">
<title>魔理沙&#45;&gt;アリス</title>
<path fill="none" stroke="#000000" d="M336,-156.002C336,-160.196 336,-164.7645 336,-169.2936"/>
<polygon fill="#000000" stroke="#000000" points="332.5001,-169.5953 336,-179.5954 339.5001,-169.5954 332.5001,-169.5953"/>
</g>
<!-- にとり -->
<g id="node22" class="node">
<title>にとり</title>
<path fill="#f4f4f4" stroke="#000000" d="M460,-216C460,-216 412,-216 412,-216 406,-216 400,-210 400,-204 400,-204 400,-192 400,-192 400,-186 406,-180 412,-180 412,-180 460,-180 460,-180 466,-180 472,-186 472,-192 472,-192 472,-204 472,-204 472,-210 466,-216 460,-216"/>
<text text-anchor="middle" x="436" y="-197.3" font-family="Helvetica,sans-Serif" font-size="14.00" fill="#000000">にとり</text>
</g>
<!-- 魔理沙&#45;&gt;にとり -->
<g id="edge26" class="edge">
<title>魔理沙&#45;&gt;にとり</title>
<path fill="none" stroke="#000000" d="M366.0033,-156.002C375.7035,-161.8221 386.6059,-168.3635 396.8667,-174.52"/>
<polygon fill="#000000" stroke="#000000" points="395.2966,-177.6596 405.6723,-179.8034 398.8981,-171.6571 395.2966,-177.6596"/>
</g>
<!-- 妖夢&#45;&gt;優曇華院 -->
<g id="edge41" class="edge">
<title>妖夢&#45;&gt;優曇華院</title>
<path fill="none" stroke="#ff6666" d="M481.344,-118.7853C499.936,-111.3486 521.3762,-102.7725 539.9631,-95.3377"/>
<path fill="none" stroke="#ff6666" d="M482.0868,-120.6423C500.6788,-113.2055 522.119,-104.6294 540.7058,-97.1947"/>
<polygon fill="#ff6666" stroke="#ff6666" points="480.2957,-116.512 472.3108,-123.4757 482.8955,-123.0114 480.2957,-116.512"/>
<polygon fill="#ff6666" stroke="#ff6666" points="541.779,-99.4581 549.7639,-92.4944 539.1792,-92.9587 541.779,-99.4581"/>
</g>
<!-- 優曇華院&#45;&gt;てゐ -->
<g id="edge9" class="edge">
<title>優曇華院&#45;&gt;てゐ</title>
<path fill="none" stroke="#ff6666" d="M592.2453,-59.998C592.6172,-55.804 592.7835,-51.2355 592.7444,-46.7064"/>
<polygon fill="#ff6666" stroke="#ff6666" points="596.2269,-46.2369 592.2803,-36.4046 589.234,-46.552 596.2269,-46.2369"/>
</g>
<!-- 優曇華院&#45;&gt;てゐ -->
<g id="edge95" class="edge">
<title>優曇華院&#45;&gt;てゐ</title>
<path fill="none" stroke="#6666ff" stroke-width="3" stroke-dasharray="1,5" d="M579.7547,-59.998C579.0936,-52.5421 579.082,-43.9023 579.7197,-36.4046"/>
</g>
<!-- 輝夜 -->
<g id="node18" class="node">
<title>輝夜</title>
<path fill="#ccffcc" stroke="#000000" d="M710,-96C710,-96 662,-96 662,-96 656,-96 650,-90 650,-84 650,-84 650,-72 650,-72 650,-66 656,-60 662,-60 662,-60 710,-60 710,-60 716,-60 722,-66 722,-72 722,-72 722,-84 722,-84 722,-90 716,-96 710,-96"/>
<text text-anchor="middle" x="686" y="-77.3" font-family="Helvetica,sans-Serif" font-size="14.00" fill="#000000">輝夜</text>
</g>
<!-- 輝夜&#45;&gt;てゐ -->
<g id="edge10" class="edge">
<title>輝夜&#45;&gt;てゐ</title>
<path fill="none" stroke="#ff6666" d="M655.9967,-59.998C646.2965,-54.1779 635.3941,-47.6365 625.1333,-41.48"/>
<polygon fill="#ff6666" stroke="#ff6666" points="626.7034,-38.3404 616.3277,-36.1966 623.1019,-44.3429 626.7034,-38.3404"/>
</g>
<!-- 輝夜&#45;&gt;永琳 -->
<g id="edge83" class="edge">
<title>輝夜&#45;&gt;永琳</title>
<path fill="none" stroke="#000000" d="M685.0001,-49.7271C685,-48.737 685,-47.7444 685.0001,-46.7536"/>
<path fill="none" stroke="#6666ff" d="M686.9999,-49.7271C687,-48.737 687,-47.7444 686.9999,-46.7536"/>
<polygon fill="#6666ff" stroke="#6666ff" points="682.5001,-49.998 686,-59.998 689.5001,-49.9981 682.5001,-49.998"/>
<polygon fill="#000000" stroke="#000000" points="689.5001,-46.4046 686,-36.4046 682.5001,-46.4047 689.5001,-46.4046"/>
</g>
<!-- 輝夜&#45;&gt;優曇華院 -->
<g id="edge23" class="edge">
<title>輝夜&#45;&gt;優曇華院</title>
<path fill="none" stroke="#000000" d="M649.8977,-78C644.2333,-78 638.3104,-78 632.4527,-78"/>
<polygon fill="#000000" stroke="#000000" points="632.0493,-74.5001 622.0493,-78 632.0493,-81.5001 632.0493,-74.5001"/>
</g>
<!-- フラン -->
<g id="node19" class="node">
<title>フラン</title>
<path fill="#ff8888" stroke="#000000" d="M60,-216C60,-216 12,-216 12,-216 6,-216 0,-210 0,-204 0,-204 0,-192 0,-192 0,-186 6,-180 12,-180 12,-180 60,-180 60,-180 66,-180 72,-186 72,-192 72,-192 72,-204 72,-204 72,-210 66,-216 60,-216"/>
<text text-anchor="middle" x="36" y="-197.3" font-family="Helvetica,sans-Serif" font-size="14.00" fill="#000000">フラン</text>
</g>
<!-- フラン&#45;&gt;美鈴 -->
<g id="edge17" class="edge">
<title>フラン&#45;&gt;美鈴</title>
<path fill="none" stroke="#000000" d="M51.0016,-179.998C55.0791,-175.1051 59.5814,-169.7023 63.9608,-164.447"/>
<polygon fill="#000000" stroke="#000000" points="66.9497,-166.3275 70.6628,-156.4046 61.5722,-161.8462 66.9497,-166.3275"/>
</g>
<!-- フラン&#45;&gt;咲夜 -->
<g id="edge1" class="edge">
<title>フラン&#45;&gt;咲夜</title>
<path fill="none" stroke="#ff6666" d="M72.3108,-183.4757C92.7789,-175.2884 118.5411,-164.9836 140.3643,-156.2543"/>
<polygon fill="#ff6666" stroke="#ff6666" points="141.779,-159.4581 149.7639,-152.4944 139.1792,-152.9587 141.779,-159.4581"/>
</g>
<!-- フラン&#45;&gt;パチュリー -->
<g id="edge2" class="edge">
<title>フラン&#45;&gt;パチュリー</title>
<path fill="none" stroke="#ff6666" d="M72.2185,-198C103.0571,-198 147.785,-198 182.7094,-198"/>
<polygon fill="#ff6666" stroke="#ff6666" points="182.7425,-201.5001 192.7425,-198 182.7425,-194.5001 182.7425,-201.5001"/>
</g>
<!-- パチュリー&#45;&gt;美鈴 -->
<g id="edge78" class="edge">
<title>パチュリー&#45;&gt;美鈴</title>
<path fill="none" stroke="#000000" d="M182.8561,-177.8195C165.9826,-171.0701 147.4589,-163.6606 131.1478,-157.1361"/>
<path fill="none" stroke="#ff6666" d="M183.5989,-175.9625C166.7253,-169.2131 148.2017,-161.8036 131.8905,-155.2792"/>
<polygon fill="#ff6666" stroke="#ff6666" points="182.0291,-180.1812 192.6138,-180.6455 184.6289,-173.6819 182.0291,-180.1812"/>
<polygon fill="#000000" stroke="#000000" points="132.7849,-152.9444 122.2002,-152.4801 130.1851,-159.4437 132.7849,-152.9444"/>
</g>
<!-- パチュリー&#45;&gt;咲夜 -->
<g id="edge35" class="edge">
<title>パチュリー&#45;&gt;咲夜</title>
<path fill="none" stroke="#ff6666" d="M213.5517,-172.6241C211.5022,-170.1647 209.4224,-167.6689 207.3687,-165.2045"/>
<path fill="none" stroke="#ff6666" d="M215.0881,-171.3437C213.0386,-168.8843 210.9588,-166.3886 208.9052,-163.9241"/>
<polygon fill="#ff6666" stroke="#ff6666" points="211.9077,-174.5564 220.9984,-179.998 217.2853,-170.0751 211.9077,-174.5564"/>
<polygon fill="#ff6666" stroke="#ff6666" points="210.4278,-161.8462 201.3372,-156.4046 205.0503,-166.3275 210.4278,-161.8462"/>
</g>
<!-- パチュリー&#45;&gt;アリス -->
<g id="edge93" class="edge">
<title>パチュリー&#45;&gt;アリス</title>
<path fill="none" stroke="#6666ff" stroke-dasharray="1,5" d="M279.2798,-198C282.7109,-198 286.185,-198 289.6358,-198"/>
<polygon fill="#6666ff" stroke="#6666ff" points="289.8525,-201.5001 299.8524,-198 289.8524,-194.5001 289.8525,-201.5001"/>
</g>
<!-- にとり&#45;&gt;アリス -->
<g id="edge94" class="edge">
<title>にとり&#45;&gt;アリス</title>
<path fill="none" stroke="#6666ff" stroke-dasharray="1,5" d="M399.8977,-198C394.2333,-198 388.3104,-198 382.4527,-198"/>
<polygon fill="#6666ff" stroke="#6666ff" points="382.0493,-194.5001 372.0493,-198 382.0493,-201.5001 382.0493,-194.5001"/>
</g>
<!-- 幽々子 -->
<g id="node23" class="node">
<title>幽々子</title>
<path fill="#f4f4f4" stroke="#000000" d="M560,-156C560,-156 512,-156 512,-156 506,-156 500,-150 500,-144 500,-144 500,-132 500,-132 500,-126 506,-120 512,-120 512,-120 560,-120 560,-120 566,-120 572,-126 572,-132 572,-132 572,-144 572,-144 572,-150 566,-156 560,-156"/>
<text text-anchor="middle" x="536" y="-137.3" font-family="Helvetica,sans-Serif" font-size="14.00" fill="#000000">幽々子</text>
</g>
<!-- 幽々子&#45;&gt;妖夢 -->
<g id="edge30" class="edge">
<title>幽々子&#45;&gt;妖夢</title>
<path fill="none" stroke="#000000" d="M499.8977,-138C494.2333,-138 488.3104,-138 482.4527,-138"/>
<polygon fill="#000000" stroke="#000000" points="482.0493,-134.5001 472.0493,-138 482.0493,-141.5001 482.0493,-134.5001"/>
</g>
<!-- ミスティア -->
<g id="node30" class="node">
<title>ミスティア</title>
<path fill="#aaaaff" stroke="#000000" stroke-dasharray="1,5" d="M541.2404,-276C541.2404,-276 480.7596,-276 480.7596,-276 474.7596,-276 468.7596,-270 468.7596,-264 468.7596,-264 468.7596,-252 468.7596,-252 468.7596,-246 474.7596,-240 480.7596,-240 480.7596,-240 541.2404,-240 541.2404,-240 547.2404,-240 553.2404,-246 553.2404,-252 553.2404,-252 553.2404,-264 553.2404,-264 553.2404,-270 547.2404,-276 541.2404,-276"/>
<text text-anchor="middle" x="511" y="-257.3" font-family="Helvetica,sans-Serif" font-size="14.00" fill="#000000">ミスティア</text>
</g>
<!-- 幽々子&#45;&gt;ミスティア -->
<g id="edge66" class="edge">
<title>幽々子&#45;&gt;ミスティア</title>
<path fill="none" stroke="#000000" d="M532.203,-156.2254C528.123,-175.8096 521.5872,-207.1816 516.8495,-229.9224"/>
<polygon fill="none" stroke="#000000" points="513.364,-229.4926 514.7508,-239.9963 520.2168,-230.9203 513.364,-229.4926"/>
</g>
<!-- LV2 -->
<g id="node24" class="node">
<title>LV2</title>
<path fill="#ffffff" stroke="#000000" stroke-dasharray="1,5" d="M613.3333,-145C613.3333,-145 608.6667,-145 608.6667,-145 606.3333,-145 604,-142.6667 604,-140.3333 604,-140.3333 604,-135.6667 604,-135.6667 604,-133.3333 606.3333,-131 608.6667,-131 608.6667,-131 613.3333,-131 613.3333,-131 615.6667,-131 618,-133.3333 618,-135.6667 618,-135.6667 618,-140.3333 618,-140.3333 618,-142.6667 615.6667,-145 613.3333,-145"/>
</g>
<!-- 慧音 -->
<g id="node25" class="node">
<title>慧音</title>
<path fill="#f4f4f4" stroke="#000000" stroke-dasharray="1,5" d="M710,-216C710,-216 662,-216 662,-216 656,-216 650,-210 650,-204 650,-204 650,-192 650,-192 650,-186 656,-180 662,-180 662,-180 710,-180 710,-180 716,-180 722,-186 722,-192 722,-192 722,-204 722,-204 722,-210 716,-216 710,-216"/>
<text text-anchor="middle" x="686" y="-197.3" font-family="Helvetica,sans-Serif" font-size="14.00" fill="#000000">慧音</text>
</g>
<!-- LV2&#45;&gt;慧音 -->
<g id="edge61" class="edge">
<title>LV2&#45;&gt;慧音</title>
<path fill="none" stroke="#6666ff" d="M618.1913,-143.7531C626.7729,-150.6184 641.6796,-162.5437 655.3348,-173.4679"/>
<polygon fill="none" stroke="#6666ff" points="653.1778,-176.2244 663.1729,-179.7383 657.5507,-170.7583 653.1778,-176.2244"/>
</g>
<!-- 妹紅 -->
<g id="node26" class="node">
<title>妹紅</title>
<path fill="#f4f4f4" stroke="#000000" d="M710,-156C710,-156 662,-156 662,-156 656,-156 650,-150 650,-144 650,-144 650,-132 650,-132 650,-126 656,-120 662,-120 662,-120 710,-120 710,-120 716,-120 722,-126 722,-132 722,-132 722,-144 722,-144 722,-150 716,-156 710,-156"/>
<text text-anchor="middle" x="686" y="-137.3" font-family="Helvetica,sans-Serif" font-size="14.00" fill="#000000">妹紅</text>
</g>
<!-- 慧音&#45;&gt;妹紅 -->
<g id="edge55" class="edge">
<title>慧音&#45;&gt;妹紅</title>
<path fill="none" stroke="#000000" d="M685.0001,-169.7271C685,-168.737 685,-167.7444 685.0001,-166.7536"/>
<path fill="none" stroke="#000000" d="M686.9999,-169.7271C687,-168.737 687,-167.7444 686.9999,-166.7536"/>
<polygon fill="#000000" stroke="#000000" points="682.5001,-169.998 686,-179.998 689.5001,-169.9981 682.5001,-169.998"/>
<polygon fill="#000000" stroke="#000000" points="689.5001,-166.4046 686,-156.4046 682.5001,-166.4047 689.5001,-166.4046"/>
</g>
<!-- 妹紅&#45;&gt;輝夜 -->
<g id="edge60" class="edge">
<title>妹紅&#45;&gt;輝夜</title>
<path fill="none" stroke="#6666ff" d="M692.2453,-119.998C692.6172,-115.804 692.7835,-111.2355 692.7444,-106.7064"/>
<polygon fill="none" stroke="#6666ff" points="696.2269,-106.2369 692.2803,-96.4046 689.234,-106.552 696.2269,-106.2369"/>
</g>
<!-- 妹紅&#45;&gt;輝夜 -->
<g id="edge90" class="edge">
<title>妹紅&#45;&gt;輝夜</title>
<path fill="none" stroke="#ff6666" stroke-width="3" stroke-dasharray="1,5" d="M679.7547,-119.998C679.0936,-112.5421 679.082,-103.9023 679.7197,-96.4046"/>
</g>
<!-- レミリア -->
<g id="node27" class="node">
<title>レミリア</title>
<path fill="#ff8888" stroke="#000000" d="M160,-276C160,-276 112,-276 112,-276 106,-276 100,-270 100,-264 100,-264 100,-252 100,-252 100,-246 106,-240 112,-240 112,-240 160,-240 160,-240 166,-240 172,-246 172,-252 172,-252 172,-264 172,-264 172,-270 166,-276 160,-276"/>
<text text-anchor="middle" x="136" y="-257.3" font-family="Helvetica,sans-Serif" font-size="14.00" fill="#000000">レミリア</text>
</g>
<!-- レミリア&#45;&gt;美鈴 -->
<g id="edge74" class="edge">
<title>レミリア&#45;&gt;美鈴</title>
<path fill="none" stroke="#000000" d="M123.5274,-230.6657C115.4183,-211.2039 104.6208,-185.2898 96.5325,-165.8781"/>
<path fill="none" stroke="#ff6666" d="M125.3735,-229.8965C117.2644,-210.4347 106.4669,-184.5206 98.3787,-165.1089"/>
<polygon fill="#ff6666" stroke="#ff6666" points="121.3291,-231.89 128.4061,-239.7746 127.7906,-229.1976 121.3291,-231.89"/>
<polygon fill="#000000" stroke="#000000" points="100.5785,-163.8883 93.5016,-156.0037 94.117,-166.5807 100.5785,-163.8883"/>
</g>
<!-- レミリア&#45;&gt;咲夜 -->
<g id="edge75" class="edge">
<title>レミリア&#45;&gt;咲夜</title>
<path fill="none" stroke="#000000" d="M146.6265,-229.8965C154.7356,-210.4347 165.5331,-184.5206 173.6213,-165.1089"/>
<path fill="none" stroke="#ff6666" d="M148.4726,-230.6657C156.5817,-211.2039 167.3792,-185.2898 175.4675,-165.8781"/>
<polygon fill="#ff6666" stroke="#ff6666" points="144.2094,-229.1976 143.5939,-239.7746 150.6709,-231.89 144.2094,-229.1976"/>
<polygon fill="#000000" stroke="#000000" points="177.883,-166.5807 178.4984,-156.0037 171.4215,-163.8883 177.883,-166.5807"/>
</g>
<!-- レミリア&#45;&gt;フラン -->
<g id="edge42" class="edge">
<title>レミリア&#45;&gt;フラン</title>
<path fill="none" stroke="#000000" d="M96.6947,-235.583C89.4902,-231.2603 81.9585,-226.7413 74.7403,-222.4104"/>
<path fill="none" stroke="#000000" d="M97.7237,-233.868C90.5192,-229.5454 82.9875,-225.0263 75.7693,-220.6954"/>
<polygon fill="#000000" stroke="#000000" points="95.621,-237.8542 105.9967,-239.998 99.2225,-231.8518 95.621,-237.8542"/>
<polygon fill="#000000" stroke="#000000" points="76.7034,-218.3404 66.3277,-216.1966 73.1019,-224.3429 76.7034,-218.3404"/>
</g>
<!-- レミリア&#45;&gt;パチュリー -->
<g id="edge76" class="edge">
<title>レミリア&#45;&gt;パチュリー</title>
<path fill="none" stroke="#000000" d="M174.2763,-233.868C181.4808,-229.5454 189.0125,-225.0263 196.2307,-220.6954"/>
<path fill="none" stroke="#ff6666" d="M175.3053,-235.583C182.5098,-231.2603 190.0415,-226.7413 197.2597,-222.4104"/>
<polygon fill="#ff6666" stroke="#ff6666" points="172.7775,-231.8518 166.0033,-239.998 176.379,-237.8542 172.7775,-231.8518"/>
<polygon fill="#000000" stroke="#000000" points="198.8981,-224.3429 205.6723,-216.1966 195.2966,-218.3404 198.8981,-224.3429"/>
</g>
<!-- 一輪 -->
<g id="node28" class="node">
<title>一輪</title>
<path fill="#cccccc" stroke="#000000" d="M260,-276C260,-276 212,-276 212,-276 206,-276 200,-270 200,-264 200,-264 200,-252 200,-252 200,-246 206,-240 212,-240 212,-240 260,-240 260,-240 266,-240 272,-246 272,-252 272,-252 272,-264 272,-264 272,-270 266,-276 260,-276"/>
<text text-anchor="middle" x="236" y="-257.3" font-family="Helvetica,sans-Serif" font-size="14.00" fill="#000000">一輪</text>
</g>
<!-- 村紗 -->
<g id="node33" class="node">
<title>村紗</title>
<path fill="#cccccc" stroke="#000000" d="M210,-336C210,-336 162,-336 162,-336 156,-336 150,-330 150,-324 150,-324 150,-312 150,-312 150,-306 156,-300 162,-300 162,-300 210,-300 210,-300 216,-300 222,-306 222,-312 222,-312 222,-324 222,-324 222,-330 216,-336 210,-336"/>
<text text-anchor="middle" x="186" y="-317.3" font-family="Helvetica,sans-Serif" font-size="14.00" fill="#000000">村紗</text>
</g>
<!-- 一輪&#45;&gt;村紗 -->
<g id="edge39" class="edge">
<title>一輪&#45;&gt;村紗</title>
<path fill="none" stroke="#ff6666" d="M215.0881,-284.6563C213.0386,-287.1157 210.9588,-289.6114 208.9052,-292.0759"/>
<path fill="none" stroke="#ff6666" d="M213.5517,-283.3759C211.5022,-285.8353 209.4224,-288.3311 207.3687,-290.7955"/>
<polygon fill="#ff6666" stroke="#ff6666" points="217.2853,-285.9249 220.9984,-276.002 211.9077,-281.4436 217.2853,-285.9249"/>
<polygon fill="#ff6666" stroke="#ff6666" points="205.0503,-289.6725 201.3372,-299.5954 210.4278,-294.1538 205.0503,-289.6725"/>
</g>
<!-- 響子 -->
<g id="node29" class="node">
<title>響子</title>
<path fill="#cccccc" stroke="#000000" d="M360,-276C360,-276 312,-276 312,-276 306,-276 300,-270 300,-264 300,-264 300,-252 300,-252 300,-246 306,-240 312,-240 312,-240 360,-240 360,-240 366,-240 372,-246 372,-252 372,-252 372,-264 372,-264 372,-270 366,-276 360,-276"/>
<text text-anchor="middle" x="336" y="-257.3" font-family="Helvetica,sans-Serif" font-size="14.00" fill="#000000">響子</text>
</g>
<!-- 響子&#45;&gt;一輪 -->
<g id="edge5" class="edge">
<title>響子&#45;&gt;一輪</title>
<path fill="none" stroke="#ff6666" d="M299.8977,-258C294.2333,-258 288.3104,-258 282.4527,-258"/>
<polygon fill="#ff6666" stroke="#ff6666" points="282.0493,-254.5001 272.0493,-258 282.0493,-261.5001 282.0493,-254.5001"/>
</g>
<!-- 響子&#45;&gt;村紗 -->
<g id="edge6" class="edge">
<title>響子&#45;&gt;村紗</title>
<path fill="none" stroke="#ff6666" d="M299.6892,-272.5243C279.2211,-280.7116 253.4589,-291.0164 231.6357,-299.7457"/>
<polygon fill="#ff6666" stroke="#ff6666" points="230.221,-296.5419 222.2361,-303.5056 232.8208,-303.0413 230.221,-296.5419"/>
</g>
<!-- ナズーリン -->
<g id="node48" class="node">
<title>ナズーリン</title>
<path fill="#cccccc" stroke="#000000" d="M365.7603,-396C365.7603,-396 306.2397,-396 306.2397,-396 300.2397,-396 294.2397,-390 294.2397,-384 294.2397,-384 294.2397,-372 294.2397,-372 294.2397,-366 300.2397,-360 306.2397,-360 306.2397,-360 365.7603,-360 365.7603,-360 371.7603,-360 377.7603,-366 377.7603,-372 377.7603,-372 377.7603,-384 377.7603,-384 377.7603,-390 371.7603,-396 365.7603,-396"/>
<text text-anchor="middle" x="336" y="-377.3" font-family="Helvetica,sans-Serif" font-size="14.00" fill="#000000">ナズーリン</text>
</g>
<!-- 響子&#45;&gt;ナズーリン -->
<g id="edge7" class="edge">
<title>響子&#45;&gt;ナズーリン</title>
<path fill="none" stroke="#ff6666" d="M336,-276.2254C336,-295.8096 336,-327.1816 336,-349.9224"/>
<polygon fill="#ff6666" stroke="#ff6666" points="332.5001,-349.9962 336,-359.9963 339.5001,-349.9963 332.5001,-349.9962"/>
</g>
<!-- ミスティア&#45;&gt;響子 -->
<g id="edge40" class="edge">
<title>ミスティア&#45;&gt;響子</title>
<path fill="none" stroke="#ff6666" d="M458.6329,-259C434.3027,-259 405.6266,-259 382.1242,-259"/>
<path fill="none" stroke="#ff6666" d="M458.6329,-257C434.3027,-257 405.6266,-257 382.1242,-257"/>
<polygon fill="#ff6666" stroke="#ff6666" points="458.6374,-261.5001 468.6374,-258 458.6373,-254.5001 458.6374,-261.5001"/>
<polygon fill="#ff6666" stroke="#ff6666" points="382.0612,-254.5001 372.0612,-258 382.0611,-261.5001 382.0612,-254.5001"/>
</g>
<!-- プリズムリバー -->
<g id="node41" class="node">
<title>プリズムリバー</title>
<path fill="#c0ffee" stroke="#888888" d="M510,-343.0001C510,-343.0001 462,-343.0001 462,-343.0001 456,-343.0001 450,-337.0001 450,-331.0001 450,-331.0001 450,-304.9999 450,-304.9999 450,-298.9999 456,-292.9999 462,-292.9999 462,-292.9999 510,-292.9999 510,-292.9999 516,-292.9999 522,-298.9999 522,-304.9999 522,-304.9999 522,-331.0001 522,-331.0001 522,-337.0001 516,-343.0001 510,-343.0001"/>
<text text-anchor="middle" x="486" y="-327.8" font-family="Helvetica,sans-Serif" font-size="14.00" fill="#888888">プリズム</text>
<text text-anchor="middle" x="486" y="-306.8" font-family="Helvetica,sans-Serif" font-size="14.00" fill="#888888">リバー</text>
</g>
<!-- ミスティア&#45;&gt;プリズムリバー -->
<g id="edge15" class="edge">
<title>ミスティア&#45;&gt;プリズムリバー</title>
<path fill="none" stroke="#ff6666" d="M503.4992,-276.002C502.5086,-278.3794 501.4678,-280.8772 500.4083,-283.42"/>
<polygon fill="#ff6666" stroke="#ff6666" points="497.1611,-282.1135 496.5456,-292.6905 503.6226,-284.8059 497.1611,-282.1135"/>
</g>
<!-- ルーミア -->
<g id="node42" class="node">
<title>ルーミア</title>
<path fill="#aaaaff" stroke="#000000" stroke-dasharray="1,5" d="M610,-336C610,-336 562,-336 562,-336 556,-336 550,-330 550,-324 550,-324 550,-312 550,-312 550,-306 556,-300 562,-300 562,-300 610,-300 610,-300 616,-300 622,-306 622,-312 622,-312 622,-324 622,-324 622,-330 616,-336 610,-336"/>
<text text-anchor="middle" x="586" y="-317.3" font-family="Helvetica,sans-Serif" font-size="14.00" fill="#000000">ルーミア</text>
</g>
<!-- ミスティア&#45;&gt;ルーミア -->
<g id="edge46" class="edge">
<title>ミスティア&#45;&gt;ルーミア</title>
<path fill="none" stroke="#000000" d="M542.3549,-281.8033C546.855,-285.4034 551.4896,-289.1111 555.9879,-292.7097"/>
<path fill="none" stroke="#000000" d="M541.1055,-283.365C545.6056,-286.9651 550.2402,-290.6728 554.7385,-294.2714"/>
<polygon fill="#000000" stroke="#000000" points="543.4976,-279.5159 533.5025,-276.002 539.1247,-284.982 543.4976,-279.5159"/>
<polygon fill="#000000" stroke="#000000" points="553.259,-296.2894 563.2542,-299.8034 557.6319,-290.8233 553.259,-296.2894"/>
</g>
<!-- チルノ -->
<g id="node31" class="node">
<title>チルノ</title>
<path fill="#aaaaff" stroke="#000000" stroke-dasharray="1,5" d="M685,-276C685,-276 637,-276 637,-276 631,-276 625,-270 625,-264 625,-264 625,-252 625,-252 625,-246 631,-240 637,-240 637,-240 685,-240 685,-240 691,-240 697,-246 697,-252 697,-252 697,-264 697,-264 697,-270 691,-276 685,-276"/>
<text text-anchor="middle" x="661" y="-257.3" font-family="Helvetica,sans-Serif" font-size="14.00" fill="#000000">チルノ</text>
</g>
<!-- チルノ&#45;&gt;ミスティア -->
<g id="edge48" class="edge">
<title>チルノ&#45;&gt;ミスティア</title>
<path fill="none" stroke="#000000" d="M614.4928,-259C598.3233,-259 580.0783,-259 563.4608,-259"/>
<path fill="none" stroke="#000000" d="M614.4928,-257C598.3233,-257 580.0783,-257 563.4608,-257"/>
<polygon fill="#000000" stroke="#000000" points="614.6892,-261.5001 624.6892,-258 614.6891,-254.5001 614.6892,-261.5001"/>
<polygon fill="#000000" stroke="#000000" points="563.3575,-254.5001 553.3575,-258 563.3575,-261.5001 563.3575,-254.5001"/>
</g>
<!-- リグル -->
<g id="node40" class="node">
<title>リグル</title>
<path fill="#aaaaff" stroke="#000000" stroke-dasharray="1,5" d="M610,-216C610,-216 562,-216 562,-216 556,-216 550,-210 550,-204 550,-204 550,-192 550,-192 550,-186 556,-180 562,-180 562,-180 610,-180 610,-180 616,-180 622,-186 622,-192 622,-192 622,-204 622,-204 622,-210 616,-216 610,-216"/>
<text text-anchor="middle" x="586" y="-197.3" font-family="Helvetica,sans-Serif" font-size="14.00" fill="#000000">リグル</text>
</g>
<!-- チルノ&#45;&gt;リグル -->
<g id="edge44" class="edge">
<title>チルノ&#45;&gt;リグル</title>
<path fill="none" stroke="#000000" d="M629.6451,-234.1967C625.145,-230.5966 620.5104,-226.8889 616.0121,-223.2903"/>
<path fill="none" stroke="#000000" d="M630.8945,-232.635C626.3944,-229.0349 621.7598,-225.3272 617.2615,-221.7286"/>
<polygon fill="#000000" stroke="#000000" points="628.5024,-236.4841 638.4975,-239.998 632.8753,-231.018 628.5024,-236.4841"/>
<polygon fill="#000000" stroke="#000000" points="618.741,-219.7106 608.7458,-216.1966 614.3681,-225.1767 618.741,-219.7106"/>
</g>
<!-- 青娥 -->
<g id="node32" class="node">
<title>青娥</title>
<path fill="#ffddbb" stroke="#000000" d="M60,-336C60,-336 12,-336 12,-336 6,-336 0,-330 0,-324 0,-324 0,-312 0,-312 0,-306 6,-300 12,-300 12,-300 60,-300 60,-300 66,-300 72,-306 72,-312 72,-312 72,-324 72,-324 72,-330 66,-336 60,-336"/>
<text text-anchor="middle" x="36" y="-317.3" font-family="Helvetica,sans-Serif" font-size="14.00" fill="#000000">青娥</text>
</g>
<!-- 芳香 -->
<g id="node43" class="node">
<title>芳香</title>
<path fill="#ffddbb" stroke="#000000" d="M60,-276C60,-276 12,-276 12,-276 6,-276 0,-270 0,-264 0,-264 0,-252 0,-252 0,-246 6,-240 12,-240 12,-240 60,-240 60,-240 66,-240 72,-246 72,-252 72,-252 72,-264 72,-264 72,-270 66,-276 60,-276"/>
<text text-anchor="middle" x="36" y="-257.3" font-family="Helvetica,sans-Serif" font-size="14.00" fill="#000000">芳香</text>
</g>
<!-- 青娥&#45;&gt;芳香 -->
<g id="edge81" class="edge">
<title>青娥&#45;&gt;芳香</title>
<path fill="none" stroke="#000000" d="M35.0001,-289.7271C35,-288.737 35,-287.7444 35.0001,-286.7536"/>
<path fill="none" stroke="#ff6666" d="M36.9999,-289.7271C37,-288.737 37,-287.7444 36.9999,-286.7536"/>
<polygon fill="#ff6666" stroke="#ff6666" points="32.5001,-289.998 36,-299.998 39.5001,-289.9981 32.5001,-289.998"/>
<polygon fill="#000000" stroke="#000000" points="39.5001,-286.4046 36,-276.4046 32.5001,-286.4047 39.5001,-286.4046"/>
</g>
<!-- 村紗&#45;&gt;ナズーリン -->
<g id="edge37" class="edge">
<title>村紗&#45;&gt;ナズーリン</title>
<path fill="none" stroke="#ff6666" d="M232.1486,-335.3824C248.9196,-342.0908 268.0015,-349.7236 285.2135,-356.6084"/>
<path fill="none" stroke="#ff6666" d="M231.4058,-337.2394C248.1768,-343.9478 267.2587,-351.5805 284.4708,-358.4653"/>
<polygon fill="#ff6666" stroke="#ff6666" points="232.8955,-332.9886 222.3108,-332.5243 230.2957,-339.488 232.8955,-332.9886"/>
<polygon fill="#ff6666" stroke="#ff6666" points="283.6008,-360.8099 294.1855,-361.2742 286.2006,-354.3106 283.6008,-360.8099"/>
</g>
<!-- 星 -->
<g id="node34" class="node">
<title>星</title>
<path fill="#cccccc" stroke="#000000" d="M410,-336C410,-336 362,-336 362,-336 356,-336 350,-330 350,-324 350,-324 350,-312 350,-312 350,-306 356,-300 362,-300 362,-300 410,-300 410,-300 416,-300 422,-306 422,-312 422,-312 422,-324 422,-324 422,-330 416,-336 410,-336"/>
<text text-anchor="middle" x="386" y="-317.3" font-family="Helvetica,sans-Serif" font-size="14.00" fill="#000000">星</text>
</g>
<!-- 星&#45;&gt;一輪 -->
<g id="edge3" class="edge">
<title>星&#45;&gt;一輪</title>
<path fill="none" stroke="#ff6666" d="M349.6892,-303.4757C329.2211,-295.2884 303.4589,-284.9836 281.6357,-276.2543"/>
<polygon fill="#ff6666" stroke="#ff6666" points="282.8208,-272.9587 272.2361,-272.4944 280.221,-279.4581 282.8208,-272.9587"/>
</g>
<!-- 星&#45;&gt;村紗 -->
<g id="edge4" class="edge">
<title>星&#45;&gt;村紗</title>
<path fill="none" stroke="#ff6666" d="M349.7815,-318C316.8938,-318 268.2098,-318 232.4657,-318"/>
<polygon fill="#ff6666" stroke="#ff6666" points="232.2865,-314.5001 222.2864,-318 232.2864,-321.5001 232.2865,-314.5001"/>
</g>
<!-- 衣玖 -->
<g id="node35" class="node">
<title>衣玖</title>
<path fill="#c0ffee" stroke="#888888" d="M460,-396C460,-396 412,-396 412,-396 406,-396 400,-390 400,-384 400,-384 400,-372 400,-372 400,-366 406,-360 412,-360 412,-360 460,-360 460,-360 466,-360 472,-366 472,-372 472,-372 472,-384 472,-384 472,-390 466,-396 460,-396"/>
<text text-anchor="middle" x="436" y="-377.3" font-family="Helvetica,sans-Serif" font-size="14.00" fill="#888888">衣玖</text>
</g>
<!-- 衣玖&#45;&gt;プリズムリバー -->
<g id="edge16" class="edge">
<title>衣玖&#45;&gt;プリズムリバー</title>
<path fill="none" stroke="#ff6666" d="M451.0016,-359.998C453.3928,-357.1287 455.93,-354.084 458.5028,-350.9966"/>
<polygon fill="#ff6666" stroke="#ff6666" points="461.1956,-353.2324 464.9087,-343.3095 455.8181,-348.7511 461.1956,-353.2324"/>
</g>
<!-- 天子 -->
<g id="node36" class="node">
<title>天子</title>
<path fill="#f4f4f4" stroke="#000000" stroke-width="2" d="M560,-396C560,-396 512,-396 512,-396 506,-396 500,-390 500,-384 500,-384 500,-372 500,-372 500,-366 506,-360 512,-360 512,-360 560,-360 560,-360 566,-360 572,-366 572,-372 572,-372 572,-384 572,-384 572,-390 566,-396 560,-396"/>
<text text-anchor="middle" x="536" y="-377.3" font-family="Helvetica,sans-Serif" font-size="14.00" fill="#000000">天子</text>
</g>
<!-- 天子&#45;&gt;衣玖 -->
<g id="edge31" class="edge">
<title>天子&#45;&gt;衣玖</title>
<path fill="none" stroke="#000000" d="M499.8977,-378C494.2333,-378 488.3104,-378 482.4527,-378"/>
<polygon fill="#000000" stroke="#000000" points="482.0493,-374.5001 472.0493,-378 482.0493,-381.5001 482.0493,-374.5001"/>
</g>
<!-- 空 -->
<g id="node50" class="node">
<title>空</title>
<path fill="#ffffaa" stroke="#000000" stroke-dasharray="1,5" d="M610,-456C610,-456 562,-456 562,-456 556,-456 550,-450 550,-444 550,-444 550,-432 550,-432 550,-426 556,-420 562,-420 562,-420 610,-420 610,-420 616,-420 622,-426 622,-432 622,-432 622,-444 622,-444 622,-450 616,-456 610,-456"/>
<text text-anchor="middle" x="586" y="-437.3" font-family="Helvetica,sans-Serif" font-size="14.00" fill="#000000">空</text>
</g>
<!-- 天子&#45;&gt;空 -->
<g id="edge32" class="edge">
<title>天子&#45;&gt;空</title>
<path fill="none" stroke="#000000" d="M551.0016,-396.002C555.0791,-400.8949 559.5814,-406.2977 563.9608,-411.553"/>
<polygon fill="#000000" stroke="#000000" points="561.5722,-414.1538 570.6628,-419.5954 566.9497,-409.6725 561.5722,-414.1538"/>
</g>
<!-- LV5 -->
<g id="node37" class="node">
<title>LV5</title>
<path fill="#ffffff" stroke="#000000" stroke-width="2" d="M613.3333,-385C613.3333,-385 608.6667,-385 608.6667,-385 606.3333,-385 604,-382.6667 604,-380.3333 604,-380.3333 604,-375.6667 604,-375.6667 604,-373.3333 606.3333,-371 608.6667,-371 608.6667,-371 613.3333,-371 613.3333,-371 615.6667,-371 618,-373.3333 618,-375.6667 618,-375.6667 618,-380.3333 618,-380.3333 618,-382.6667 615.6667,-385 613.3333,-385"/>
</g>
<!-- LV5&#45;&gt;天子 -->
<g id="edge62" class="edge">
<title>LV5&#45;&gt;天子</title>
<path fill="none" stroke="#6666ff" d="M603.8087,-378C598.4856,-378 590.7288,-378 582.3466,-378"/>
<polygon fill="none" stroke="#6666ff" points="582.3278,-374.5001 572.3277,-378 582.3277,-381.5001 582.3278,-374.5001"/>
</g>
<!-- 小町 -->
<g id="node38" class="node">
<title>小町</title>
<path fill="#f4f4f4" stroke="#000000" stroke-width="2" d="M710,-396C710,-396 662,-396 662,-396 656,-396 650,-390 650,-384 650,-384 650,-372 650,-372 650,-366 656,-360 662,-360 662,-360 710,-360 710,-360 716,-360 722,-366 722,-372 722,-372 722,-384 722,-384 722,-390 716,-396 710,-396"/>
<text text-anchor="middle" x="686" y="-377.3" font-family="Helvetica,sans-Serif" font-size="14.00" fill="#000000">小町</text>
</g>
<!-- 四季映姫 -->
<g id="node39" class="node">
<title>四季映姫</title>
<path fill="#f4f4f4" stroke="#000000" d="M710,-336C710,-336 662,-336 662,-336 656,-336 650,-330 650,-324 650,-324 650,-312 650,-312 650,-306 656,-300 662,-300 662,-300 710,-300 710,-300 716,-300 722,-306 722,-312 722,-312 722,-324 722,-324 722,-330 716,-336 710,-336"/>
<text text-anchor="middle" x="686" y="-317.3" font-family="Helvetica,sans-Serif" font-size="14.00" fill="#000000">四季映姫</text>
</g>
<!-- 四季映姫&#45;&gt;小町 -->
<g id="edge13" class="edge">
<title>四季映姫&#45;&gt;小町</title>
<path fill="none" stroke="#ff6666" d="M679.7547,-336.002C679.3828,-340.196 679.2165,-344.7645 679.2556,-349.2936"/>
<polygon fill="#ff6666" stroke="#ff6666" points="675.7731,-349.7631 679.7197,-359.5954 682.766,-349.448 675.7731,-349.7631"/>
</g>
<!-- 四季映姫&#45;&gt;小町 -->
<g id="edge84" class="edge">
<title>四季映姫&#45;&gt;小町</title>
<path fill="none" stroke="#000000" stroke-width="2" stroke-dasharray="1,5" d="M692.2453,-336.002C692.9064,-343.4579 692.918,-352.0977 692.2803,-359.5954"/>
</g>
<!-- リグル&#45;&gt;ミスティア -->
<g id="edge45" class="edge">
<title>リグル&#45;&gt;ミスティア</title>
<path fill="none" stroke="#000000" d="M555.8945,-223.365C551.3944,-226.9651 546.7598,-230.6728 542.2615,-234.2714"/>
<path fill="none" stroke="#000000" d="M554.6451,-221.8033C550.145,-225.4034 545.5104,-229.1111 541.0121,-232.7097"/>
<polygon fill="#000000" stroke="#000000" points="557.8753,-224.982 563.4975,-216.002 553.5024,-219.5159 557.8753,-224.982"/>
<polygon fill="#000000" stroke="#000000" points="539.3681,-230.8233 533.7458,-239.8034 543.741,-236.2894 539.3681,-230.8233"/>
</g>
<!-- ルーミア&#45;&gt;チルノ -->
<g id="edge43" class="edge">
<title>ルーミア&#45;&gt;チルノ</title>
<path fill="none" stroke="#000000" d="M616.1055,-292.635C620.6056,-289.0349 625.2402,-285.3272 629.7385,-281.7286"/>
<path fill="none" stroke="#000000" d="M617.3549,-294.1967C621.855,-290.5966 626.4896,-286.8889 630.9879,-283.2903"/>
<polygon fill="#000000" stroke="#000000" points="614.1247,-291.018 608.5025,-299.998 618.4976,-296.4841 614.1247,-291.018"/>
<polygon fill="#000000" stroke="#000000" points="632.6319,-285.1767 638.2542,-276.1966 628.259,-279.7106 632.6319,-285.1767"/>
</g>
<!-- ルーミア&#45;&gt;リグル -->
<g id="edge47" class="edge">
<title>ルーミア&#45;&gt;リグル</title>
<path fill="none" stroke="#000000" d="M585,-289.664C585,-270.5108 585,-245.324 585,-226.1995"/>
<path fill="none" stroke="#000000" d="M587,-289.664C587,-270.5108 587,-245.324 587,-226.1995"/>
<polygon fill="#000000" stroke="#000000" points="582.5001,-289.7745 586,-299.7746 589.5001,-289.7746 582.5001,-289.7745"/>
<polygon fill="#000000" stroke="#000000" points="589.5001,-226.0037 586,-216.0037 582.5001,-226.0038 589.5001,-226.0037"/>
</g>
<!-- 神子 -->
<g id="node44" class="node">
<title>神子</title>
<path fill="#ffddbb" stroke="#000000" d="M160,-381C160,-381 112,-381 112,-381 106,-381 100,-375 100,-369 100,-369 100,-357 100,-357 100,-351 106,-345 112,-345 112,-345 160,-345 160,-345 166,-345 172,-351 172,-357 172,-357 172,-369 172,-369 172,-375 166,-381 160,-381"/>
<text text-anchor="middle" x="136" y="-362.3" font-family="Helvetica,sans-Serif" font-size="14.00" fill="#000000">神子</text>
</g>
<!-- 神子&#45;&gt;青娥 -->
<g id="edge28" class="edge">
<title>神子&#45;&gt;青娥</title>
<path fill="none" stroke="#000000" d="M99.8977,-346.754C93.9501,-344.0775 87.7174,-341.2728 81.5746,-338.5086"/>
<polygon fill="#000000" stroke="#000000" points="82.6048,-335.1342 72.0493,-334.2222 79.7322,-341.5176 82.6048,-335.1342"/>
</g>
<!-- 布都 -->
<g id="node51" class="node">
<title>布都</title>
<path fill="#ffddbb" stroke="#000000" d="M60,-396C60,-396 12,-396 12,-396 6,-396 0,-390 0,-384 0,-384 0,-372 0,-372 0,-366 6,-360 12,-360 12,-360 60,-360 60,-360 66,-360 72,-366 72,-372 72,-372 72,-384 72,-384 72,-390 66,-396 60,-396"/>
<text text-anchor="middle" x="36" y="-377.3" font-family="Helvetica,sans-Serif" font-size="14.00" fill="#000000">布都</text>
</g>
<!-- 神子&#45;&gt;布都 -->
<g id="edge29" class="edge">
<title>神子&#45;&gt;布都</title>
<path fill="none" stroke="#000000" d="M99.8977,-368.4153C94.0917,-369.2862 88.0141,-370.1979 82.0135,-371.098"/>
<polygon fill="#000000" stroke="#000000" points="81.4194,-367.6478 72.0493,-372.5926 82.4579,-374.5704 81.4194,-367.6478"/>
</g>
<!-- 神社 -->
<g id="node45" class="node">
<title>神社</title>
<path fill="#ffddbb" stroke="#000000" stroke-width="0" d="M158.3333,-405C158.3333,-405 153.6667,-405 153.6667,-405 151.3333,-405 149,-402.6667 149,-400.3333 149,-400.3333 149,-395.6667 149,-395.6667 149,-393.3333 151.3333,-391 153.6667,-391 153.6667,-391 158.3333,-391 158.3333,-391 160.6667,-391 163,-393.3333 163,-395.6667 163,-395.6667 163,-400.3333 163,-400.3333 163,-402.6667 160.6667,-405 158.3333,-405"/>
</g>
<!-- 白蓮 -->
<g id="node47" class="node">
<title>白蓮</title>
<path fill="#cccccc" stroke="#000000" stroke-width="2" d="M260,-396C260,-396 212,-396 212,-396 206,-396 200,-390 200,-384 200,-384 200,-372 200,-372 200,-366 206,-360 212,-360 212,-360 260,-360 260,-360 266,-360 272,-366 272,-372 272,-372 272,-384 272,-384 272,-390 266,-396 260,-396"/>
<text text-anchor="middle" x="236" y="-377.3" font-family="Helvetica,sans-Serif" font-size="14.00" fill="#000000">白蓮</text>
</g>
<!-- 神社&#45;&gt;白蓮 -->
<g id="edge64" class="edge">
<title>神社&#45;&gt;白蓮</title>
<path fill="none" stroke="#6666ff" d="M163.0995,-396.2251C169.482,-394.6295 179.4503,-392.1374 189.9883,-389.5029"/>
<polygon fill="none" stroke="#6666ff" points="190.8871,-392.886 199.7396,-387.0651 189.1893,-386.095 190.8871,-392.886"/>
</g>
<!-- マミゾウ -->
<g id="node53" class="node">
<title>マミゾウ</title>
<path fill="#cccccc" stroke="#000000" d="M160,-456C160,-456 112,-456 112,-456 106,-456 100,-450 100,-444 100,-444 100,-432 100,-432 100,-426 106,-420 112,-420 112,-420 160,-420 160,-420 166,-420 172,-426 172,-432 172,-432 172,-444 172,-444 172,-450 166,-456 160,-456"/>
<text text-anchor="middle" x="136" y="-437.3" font-family="Helvetica,sans-Serif" font-size="14.00" fill="#000000">マミゾウ</text>
</g>
<!-- 神社&#45;&gt;マミゾウ -->
<g id="edge65" class="edge">
<title>神社&#45;&gt;マミゾウ</title>
<path fill="none" stroke="#6666ff" d="M152.3317,-405.3366C151.5071,-406.9859 150.5848,-408.8303 149.6097,-410.7805"/>
<polygon fill="none" stroke="#6666ff" points="146.4766,-409.2207 145.1349,-419.7303 152.7376,-412.3512 146.4766,-409.2207"/>
</g>
<!-- 命蓮寺 -->
<g id="node46" class="node">
<title>命蓮寺</title>
<path fill="#cccccc" stroke="#000000" stroke-width="0" d="M118.3333,-415C118.3333,-415 113.6667,-415 113.6667,-415 111.3333,-415 109,-412.6667 109,-410.3333 109,-410.3333 109,-405.6667 109,-405.6667 109,-403.3333 111.3333,-401 113.6667,-401 113.6667,-401 118.3333,-401 118.3333,-401 120.6667,-401 123,-403.3333 123,-405.6667 123,-405.6667 123,-410.3333 123,-410.3333 123,-412.6667 120.6667,-415 118.3333,-415"/>
</g>
<!-- 命蓮寺&#45;&gt;神子 -->
<g id="edge63" class="edge">
<title>命蓮寺&#45;&gt;神子</title>
<path fill="none" stroke="#6666ff" d="M119.125,-400.9688C120.4598,-397.9654 122.1114,-394.2493 123.8543,-390.3278"/>
<polygon fill="none" stroke="#6666ff" points="127.1174,-391.6036 127.9805,-381.0439 120.7207,-388.7606 127.1174,-391.6036"/>
</g>
<!-- 白蓮&#45;&gt;一輪 -->
<g id="edge67" class="edge">
<title>白蓮&#45;&gt;一輪</title>
<path fill="none" stroke="#000000" d="M235,-349.664C235,-330.5108 235,-305.324 235,-286.1995"/>
<path fill="none" stroke="#ff6666" d="M237,-349.664C237,-330.5108 237,-305.324 237,-286.1995"/>
<polygon fill="#ff6666" stroke="#ff6666" points="232.5001,-349.7745 236,-359.7746 239.5001,-349.7746 232.5001,-349.7745"/>
<polygon fill="#000000" stroke="#000000" points="239.5001,-286.0037 236,-276.0037 232.5001,-286.0038 239.5001,-286.0037"/>
</g>
<!-- 白蓮&#45;&gt;響子 -->
<g id="edge68" class="edge">
<title>白蓮&#45;&gt;響子</title>
<path fill="none" stroke="#000000" d="M257.0612,-351.1645C273.8687,-330.9955 296.9803,-303.2616 313.7102,-283.1857"/>
<path fill="none" stroke="#ff6666" d="M258.5976,-352.4449C275.4052,-332.2758 298.5167,-304.542 315.2467,-284.4661"/>
<polygon fill="#ff6666" stroke="#ff6666" points="254.9009,-349.8517 251.1878,-359.7746 260.2785,-354.333 254.9009,-349.8517"/>
<polygon fill="#000000" stroke="#000000" points="317.2838,-285.9266 320.9969,-276.0037 311.9062,-281.4453 317.2838,-285.9266"/>
</g>
<!-- 白蓮&#45;&gt;村紗 -->
<g id="edge69" class="edge">
<title>白蓮&#45;&gt;村紗</title>
<path fill="none" stroke="#000000" d="M213.5517,-352.6241C211.5022,-350.1647 209.4224,-347.6689 207.3687,-345.2045"/>
<path fill="none" stroke="#ff6666" d="M215.0881,-351.3437C213.0386,-348.8843 210.9588,-346.3886 208.9052,-343.9241"/>
<polygon fill="#ff6666" stroke="#ff6666" points="211.9077,-354.5564 220.9984,-359.998 217.2853,-350.0751 211.9077,-354.5564"/>
<polygon fill="#000000" stroke="#000000" points="210.4278,-341.8462 201.3372,-336.4046 205.0503,-346.3275 210.4278,-341.8462"/>
</g>
<!-- 白蓮&#45;&gt;星 -->
<g id="edge70" class="edge">
<title>白蓮&#45;&gt;星</title>
<path fill="none" stroke="#000000" d="M281.344,-358.7853C299.936,-351.3486 321.3762,-342.7725 339.9631,-335.3377"/>
<path fill="none" stroke="#ff6666" d="M282.0868,-360.6423C300.6788,-353.2055 322.119,-344.6294 340.7058,-337.1947"/>
<polygon fill="#ff6666" stroke="#ff6666" points="280.2957,-356.512 272.3108,-363.4757 282.8955,-363.0114 280.2957,-356.512"/>
<polygon fill="#000000" stroke="#000000" points="341.779,-339.4581 349.7639,-332.4944 339.1792,-332.9587 341.779,-339.4581"/>
</g>
<!-- 白蓮&#45;&gt;ナズーリン -->
<g id="edge71" class="edge">
<title>白蓮&#45;&gt;ナズーリン</title>
<path fill="none" stroke="#000000" d="M282.3773,-377.0002C282.869,-377 283.3612,-377 283.8537,-377.0002"/>
<path fill="none" stroke="#ff6666" d="M282.3773,-378.9998C282.869,-379 283.3612,-379 283.8537,-378.9998"/>
<polygon fill="#ff6666" stroke="#ff6666" points="282.1023,-374.5001 272.1023,-378 282.1023,-381.5001 282.1023,-374.5001"/>
<polygon fill="#000000" stroke="#000000" points="284.1704,-381.5001 294.1704,-378 284.1704,-374.5001 284.1704,-381.5001"/>
</g>
<!-- ぬえ -->
<g id="node52" class="node">
<title>ぬえ</title>
<path fill="#cccccc" stroke="#000000" d="M260,-456C260,-456 212,-456 212,-456 206,-456 200,-450 200,-444 200,-444 200,-432 200,-432 200,-426 206,-420 212,-420 212,-420 260,-420 260,-420 266,-420 272,-426 272,-432 272,-432 272,-444 272,-444 272,-450 266,-456 260,-456"/>
<text text-anchor="middle" x="236" y="-437.3" font-family="Helvetica,sans-Serif" font-size="14.00" fill="#000000">ぬえ</text>
</g>
<!-- 白蓮&#45;&gt;ぬえ -->
<g id="edge34" class="edge">
<title>白蓮&#45;&gt;ぬえ</title>
<path fill="none" stroke="#000000" d="M236,-396.002C236,-400.196 236,-404.7645 236,-409.2936"/>
<polygon fill="#000000" stroke="#000000" points="232.5001,-409.5953 236,-419.5954 239.5001,-409.5954 232.5001,-409.5953"/>
</g>
<!-- 白蓮&#45;&gt;マミゾウ -->
<g id="edge14" class="edge">
<title>白蓮&#45;&gt;マミゾウ</title>
<path fill="none" stroke="#ff6666" d="M205.9967,-396.002C196.2965,-401.8221 185.3941,-408.3635 175.1333,-414.52"/>
<polygon fill="#ff6666" stroke="#ff6666" points="173.1019,-411.6571 166.3277,-419.8034 176.7034,-417.6596 173.1019,-411.6571"/>
</g>
<!-- ナズーリン&#45;&gt;一輪 -->
<g id="edge38" class="edge">
<title>ナズーリン&#45;&gt;一輪</title>
<path fill="none" stroke="#ff6666" d="M313.4024,-352.4449C296.5948,-332.2758 273.4833,-304.542 256.7533,-284.4661"/>
<path fill="none" stroke="#ff6666" d="M314.9388,-351.1645C298.1313,-330.9955 275.0197,-303.2616 258.2898,-283.1857"/>
<polygon fill="#ff6666" stroke="#ff6666" points="311.7215,-354.333 320.8122,-359.7746 317.0991,-349.8517 311.7215,-354.333"/>
<polygon fill="#ff6666" stroke="#ff6666" points="260.0938,-281.4453 251.0031,-276.0037 254.7162,-285.9266 260.0938,-281.4453"/>
</g>
<!-- ナズーリン&#45;&gt;星 -->
<g id="edge54" class="edge">
<title>ナズーリン&#45;&gt;星</title>
<path fill="none" stroke="#000000" d="M356.9119,-351.3437C358.9614,-348.8843 361.0412,-346.3886 363.0948,-343.9241"/>
<path fill="none" stroke="#000000" d="M358.4483,-352.6241C360.4978,-350.1647 362.5776,-347.6689 364.6313,-345.2045"/>
<polygon fill="#000000" stroke="#000000" points="354.7147,-350.0751 351.0016,-359.998 360.0923,-354.5564 354.7147,-350.0751"/>
<polygon fill="#000000" stroke="#000000" points="366.9497,-346.3275 370.6628,-336.4046 361.5722,-341.8462 366.9497,-346.3275"/>
</g>
<!-- 燐 -->
<g id="node49" class="node">
<title>燐</title>
<path fill="#ffffaa" stroke="#000000" d="M510,-456C510,-456 462,-456 462,-456 456,-456 450,-450 450,-444 450,-444 450,-432 450,-432 450,-426 456,-420 462,-420 462,-420 510,-420 510,-420 516,-420 522,-426 522,-432 522,-432 522,-444 522,-444 522,-450 516,-456 510,-456"/>
<text text-anchor="middle" x="486" y="-437.3" font-family="Helvetica,sans-Serif" font-size="14.00" fill="#000000">燐</text>
</g>
<!-- 燐&#45;&gt;ナズーリン -->
<g id="edge58" class="edge">
<title>燐&#45;&gt;ナズーリン</title>
<path fill="none" stroke="#6666ff" d="M449.6892,-423.4757C430.9765,-415.9906 407.8389,-406.7356 387.3318,-398.5327"/>
<polygon fill="none" stroke="#6666ff" points="388.3992,-395.1901 377.8145,-394.7258 385.7994,-401.6894 388.3992,-395.1901"/>
</g>
<!-- 燐&#45;&gt;空 -->
<g id="edge36" class="edge">
<title>燐&#45;&gt;空</title>
<path fill="none" stroke="#ff6666" d="M532.5075,-437C534.9789,-437 537.4617,-437 539.9316,-437"/>
<path fill="none" stroke="#ff6666" d="M532.5075,-439C534.9789,-439 537.4617,-439 539.9316,-439"/>
<polygon fill="#ff6666" stroke="#ff6666" points="532.1023,-434.5001 522.1023,-438 532.1023,-441.5001 532.1023,-434.5001"/>
<polygon fill="#ff6666" stroke="#ff6666" points="539.9507,-441.5001 549.9507,-438 539.9507,-434.5001 539.9507,-441.5001"/>
</g>
<!-- マミゾウ&#45;&gt;ぬえ -->
<g id="edge82" class="edge">
<title>マミゾウ&#45;&gt;ぬえ</title>
<path fill="none" stroke="#000000" d="M182.5075,-437C184.9789,-437 187.4617,-437 189.9316,-437"/>
<path fill="none" stroke="#ff6666" d="M182.5075,-439C184.9789,-439 187.4617,-439 189.9316,-439"/>
<polygon fill="#ff6666" stroke="#ff6666" points="182.1023,-434.5001 172.1023,-438 182.1023,-441.5001 182.1023,-434.5001"/>
<polygon fill="#000000" stroke="#000000" points="189.9507,-441.5001 199.9507,-438 189.9507,-434.5001 189.9507,-441.5001"/>
</g>
<!-- 橙 -->
<g id="node54" class="node">
<title>橙</title>
<path fill="#f4f4f4" stroke="#000000" stroke-dasharray="1,5" d="M360,-456C360,-456 312,-456 312,-456 306,-456 300,-450 300,-444 300,-444 300,-432 300,-432 300,-426 306,-420 312,-420 312,-420 360,-420 360,-420 366,-420 372,-426 372,-432 372,-432 372,-444 372,-444 372,-450 366,-456 360,-456"/>
<text text-anchor="middle" x="336" y="-437.3" font-family="Helvetica,sans-Serif" font-size="14.00" fill="#000000">橙</text>
</g>
<!-- 橙&#45;&gt;ナズーリン -->
<g id="edge59" class="edge">
<title>橙&#45;&gt;ナズーリン</title>
<path fill="none" stroke="#6666ff" d="M336,-419.998C336,-415.804 336,-411.2355 336,-406.7064"/>
<polygon fill="none" stroke="#6666ff" points="339.5001,-406.4046 336,-396.4046 332.5001,-406.4047 339.5001,-406.4046"/>
</g>
<!-- 藍 -->
<g id="node62" class="node">
<title>藍</title>
<path fill="#f4f4f4" stroke="#000000" d="M310,-516C310,-516 262,-516 262,-516 256,-516 250,-510 250,-504 250,-504 250,-492 250,-492 250,-486 256,-480 262,-480 262,-480 310,-480 310,-480 316,-480 322,-486 322,-492 322,-492 322,-504 322,-504 322,-510 316,-516 310,-516"/>
<text text-anchor="middle" x="286" y="-497.3" font-family="Helvetica,sans-Serif" font-size="14.00" fill="#000000">藍</text>
</g>
<!-- 橙&#45;&gt;藍 -->
<g id="edge53" class="edge">
<title>橙&#45;&gt;藍</title>
<path fill="none" stroke="#000000" d="M315.0881,-464.6563C313.0386,-467.1157 310.9588,-469.6114 308.9052,-472.0759"/>
<path fill="none" stroke="#000000" d="M313.5517,-463.3759C311.5022,-465.8353 309.4224,-468.3311 307.3687,-470.7955"/>
<polygon fill="#000000" stroke="#000000" points="317.2853,-465.9249 320.9984,-456.002 311.9077,-461.4436 317.2853,-465.9249"/>
<polygon fill="#000000" stroke="#000000" points="305.0503,-469.6725 301.3372,-479.5954 310.4278,-474.1538 305.0503,-469.6725"/>
</g>
<!-- さとり -->
<g id="node55" class="node">
<title>さとり</title>
<path fill="#ffffaa" stroke="#000000" d="M510,-516C510,-516 462,-516 462,-516 456,-516 450,-510 450,-504 450,-504 450,-492 450,-492 450,-486 456,-480 462,-480 462,-480 510,-480 510,-480 516,-480 522,-486 522,-492 522,-492 522,-504 522,-504 522,-510 516,-516 510,-516"/>
<text text-anchor="middle" x="486" y="-497.3" font-family="Helvetica,sans-Serif" font-size="14.00" fill="#000000">さとり</text>
</g>
<!-- さとり&#45;&gt;燐 -->
<g id="edge72" class="edge">
<title>さとり&#45;&gt;燐</title>
<path fill="none" stroke="#000000" d="M485.0001,-469.7271C485,-468.737 485,-467.7444 485.0001,-466.7536"/>
<path fill="none" stroke="#ff6666" d="M486.9999,-469.7271C487,-468.737 487,-467.7444 486.9999,-466.7536"/>
<polygon fill="#ff6666" stroke="#ff6666" points="482.5001,-469.998 486,-479.998 489.5001,-469.9981 482.5001,-469.998"/>
<polygon fill="#000000" stroke="#000000" points="489.5001,-466.4046 486,-456.4046 482.5001,-466.4047 489.5001,-466.4046"/>
</g>
<!-- さとり&#45;&gt;空 -->
<g id="edge73" class="edge">
<title>さとり&#45;&gt;空</title>
<path fill="none" stroke="#000000" d="M524.2763,-473.868C531.4808,-469.5454 539.0125,-465.0263 546.2307,-460.6954"/>
<path fill="none" stroke="#ff6666" d="M525.3053,-475.583C532.5098,-471.2603 540.0415,-466.7413 547.2597,-462.4104"/>
<polygon fill="#ff6666" stroke="#ff6666" points="522.7775,-471.8518 516.0033,-479.998 526.379,-477.8542 522.7775,-471.8518"/>
<polygon fill="#000000" stroke="#000000" points="548.8981,-464.3429 555.6723,-456.1966 545.2966,-458.3404 548.8981,-464.3429"/>
</g>
<!-- こいし -->
<g id="node56" class="node">
<title>こいし</title>
<path fill="#ffffaa" stroke="#000000" d="M610,-516C610,-516 562,-516 562,-516 556,-516 550,-510 550,-504 550,-504 550,-492 550,-492 550,-486 556,-480 562,-480 562,-480 610,-480 610,-480 616,-480 622,-486 622,-492 622,-492 622,-504 622,-504 622,-510 616,-516 610,-516"/>
<text text-anchor="middle" x="586" y="-497.3" font-family="Helvetica,sans-Serif" font-size="14.00" fill="#000000">こいし</text>
</g>
<!-- さとり&#45;&gt;こいし -->
<g id="edge49" class="edge">
<title>さとり&#45;&gt;こいし</title>
<path fill="none" stroke="#000000" d="M532.5075,-497C534.9789,-497 537.4617,-497 539.9316,-497"/>
<path fill="none" stroke="#000000" d="M532.5075,-499C534.9789,-499 537.4617,-499 539.9316,-499"/>
<polygon fill="#000000" stroke="#000000" points="532.1023,-494.5001 522.1023,-498 532.1023,-501.5001 532.1023,-494.5001"/>
<polygon fill="#000000" stroke="#000000" points="539.9507,-501.5001 549.9507,-498 539.9507,-494.5001 539.9507,-501.5001"/>
</g>
<!-- こいし&#45;&gt;燐 -->
<g id="edge20" class="edge">
<title>こいし&#45;&gt;燐</title>
<path fill="none" stroke="#000000" d="M555.9967,-479.998C546.2965,-474.1779 535.3941,-467.6365 525.1333,-461.48"/>
<polygon fill="#000000" stroke="#000000" points="526.7034,-458.3404 516.3277,-456.1966 523.1019,-464.3429 526.7034,-458.3404"/>
</g>
<!-- こいし&#45;&gt;空 -->
<g id="edge21" class="edge">
<title>こいし&#45;&gt;空</title>
<path fill="none" stroke="#000000" d="M586,-479.998C586,-475.804 586,-471.2355 586,-466.7064"/>
<polygon fill="#000000" stroke="#000000" points="589.5001,-466.4046 586,-456.4046 582.5001,-466.4047 589.5001,-466.4046"/>
</g>
<!-- メディスン -->
<g id="node57" class="node">
<title>メディスン</title>
<path fill="#f4f4f4" stroke="#000000" d="M716.04,-456C716.04,-456 655.96,-456 655.96,-456 649.96,-456 643.96,-450 643.96,-444 643.96,-444 643.96,-432 643.96,-432 643.96,-426 649.96,-420 655.96,-420 655.96,-420 716.04,-420 716.04,-420 722.04,-420 728.04,-426 728.04,-432 728.04,-432 728.04,-444 728.04,-444 728.04,-450 722.04,-456 716.04,-456"/>
<text text-anchor="middle" x="686" y="-437.3" font-family="Helvetica,sans-Serif" font-size="14.00" fill="#000000">メディスン</text>
</g>
<!-- 幽香 -->
<g id="node58" class="node">
<title>幽香</title>
<path fill="#f4f4f4" stroke="#000000" d="M710,-516C710,-516 662,-516 662,-516 656,-516 650,-510 650,-504 650,-504 650,-492 650,-492 650,-486 656,-480 662,-480 662,-480 710,-480 710,-480 716,-480 722,-486 722,-492 722,-492 722,-504 722,-504 722,-510 716,-516 710,-516"/>
<text text-anchor="middle" x="686" y="-497.3" font-family="Helvetica,sans-Serif" font-size="14.00" fill="#000000">幽香</text>
</g>
<!-- 幽香&#45;&gt;メディスン -->
<g id="edge33" class="edge">
<title>幽香&#45;&gt;メディスン</title>
<path fill="none" stroke="#000000" d="M686,-479.998C686,-475.804 686,-471.2355 686,-466.7064"/>
<polygon fill="#000000" stroke="#000000" points="689.5001,-466.4046 686,-456.4046 682.5001,-466.4047 689.5001,-466.4046"/>
</g>
<!-- 文 -->
<g id="node59" class="node">
<title>文</title>
<path fill="#c0ffee" stroke="#888888" d="M110,-516C110,-516 62,-516 62,-516 56,-516 50,-510 50,-504 50,-504 50,-492 50,-492 50,-486 56,-480 62,-480 62,-480 110,-480 110,-480 116,-480 122,-486 122,-492 122,-492 122,-504 122,-504 122,-510 116,-516 110,-516"/>
<text text-anchor="middle" x="86" y="-497.3" font-family="Helvetica,sans-Serif" font-size="14.00" fill="#888888">文</text>
</g>
<!-- はたて -->
<g id="node60" class="node">
<title>はたて</title>
<path fill="#c0ffee" stroke="#888888" d="M210,-516C210,-516 162,-516 162,-516 156,-516 150,-510 150,-504 150,-504 150,-492 150,-492 150,-486 156,-480 162,-480 162,-480 210,-480 210,-480 216,-480 222,-486 222,-492 222,-492 222,-504 222,-504 222,-510 216,-516 210,-516"/>
<text text-anchor="middle" x="186" y="-497.3" font-family="Helvetica,sans-Serif" font-size="14.00" fill="#888888">はたて</text>
</g>
<!-- レティ -->
<g id="node61" class="node">
<title>レティ</title>
<path fill="#c0ffee" stroke="#888888" d="M60,-456C60,-456 12,-456 12,-456 6,-456 0,-450 0,-444 0,-444 0,-432 0,-432 0,-426 6,-420 12,-420 12,-420 60,-420 60,-420 66,-420 72,-426 72,-432 72,-432 72,-444 72,-444 72,-450 66,-456 60,-456"/>
<text text-anchor="middle" x="36" y="-437.3" font-family="Helvetica,sans-Serif" font-size="14.00" fill="#888888">レティ</text>
</g>
<!-- 藍&#45;&gt;マミゾウ -->
<g id="edge57" class="edge">
<title>藍&#45;&gt;マミゾウ</title>
<path fill="none" stroke="#000000" d="M240.2846,-479.7138C221.6926,-472.277 200.2524,-463.701 181.6655,-456.2662"/>
<polygon fill="none" stroke="#000000" points="239.1045,-483.0114 249.6892,-483.4757 241.7043,-476.512 239.1045,-483.0114"/>
<polygon fill="none" stroke="#000000" points="182.8208,-452.9587 172.2361,-452.4944 180.221,-459.4581 182.8208,-452.9587"/>
</g>
<!-- 紫 -->
<g id="node63" class="node">
<title>紫</title>
<path fill="#f4f4f4" stroke="#000000" stroke-width="2" d="M410,-516C410,-516 362,-516 362,-516 356,-516 350,-510 350,-504 350,-504 350,-492 350,-492 350,-486 356,-480 362,-480 362,-480 410,-480 410,-480 416,-480 422,-486 422,-492 422,-492 422,-504 422,-504 422,-510 416,-516 410,-516"/>
<text text-anchor="middle" x="386" y="-497.3" font-family="Helvetica,sans-Serif" font-size="14.00" fill="#000000">紫</text>
</g>
<!-- 紫&#45;&gt;橙 -->
<g id="edge18" class="edge">
<title>紫&#45;&gt;橙</title>
<path fill="none" stroke="#000000" d="M370.9984,-479.998C366.9209,-475.1051 362.4186,-469.7023 358.0392,-464.447"/>
<polygon fill="#000000" stroke="#000000" points="360.4278,-461.8462 351.3372,-456.4046 355.0503,-466.3275 360.4278,-461.8462"/>
</g>
<!-- 紫&#45;&gt;藍 -->
<g id="edge19" class="edge">
<title>紫&#45;&gt;藍</title>
<path fill="none" stroke="#000000" d="M349.8977,-498C344.2333,-498 338.3104,-498 332.4527,-498"/>
<polygon fill="#000000" stroke="#000000" points="332.0493,-494.5001 322.0493,-498 332.0493,-501.5001 332.0493,-494.5001"/>
</g>
</g>
</svg>
